<svg xmlns="http://www.w3.org/2000/svg" width="18" height="18" viewBox="0 0 18 18"><defs><style>.a{fill:#fbbb00;}.b{fill:#518ef8;}.c{fill:#28b446;}.d{fill:#f14336;}</style></defs><path class="a" d="M4.019,144.329l-.631,2.356-2.307.049a9.082,9.082,0,0,1-.067-8.466h0l2.054.377.9,2.041a5.411,5.411,0,0,0,.051,3.643Z" transform="translate(0 -133.438)"/><path class="b" d="M270.337,208.176a9.063,9.063,0,0,1-3.232,8.764h0l-2.587-.132-.366-2.286a5.4,5.4,0,0,0,2.325-2.759h-4.848v-3.587h8.709Z" transform="translate(-252.495 -200.936)"/><path class="c" d="M44.17,314.587h0a9.069,9.069,0,0,1-13.662-2.774l2.938-2.405a5.392,5.392,0,0,0,7.77,2.761Z" transform="translate(-29.429 -298.584)"/><path class="d" d="M42.464,2.087l-2.937,2.4a5.391,5.391,0,0,0-7.949,2.823L28.624,4.9h0a9.068,9.068,0,0,1,13.84-2.81Z" transform="translate(-27.61)"/></svg>